<svg id="Calque_2" xmlns="http://www.w3.org/2000/svg" viewBox="0 0 166.71 154.75"><style>.cls-1{fill:#050504}@media (prefers-color-scheme:dark){.cls-1{fill:#f3f3f3}}</style><g id="Calque_1-2"><path class="cls-1" d="M0 92.51C0 55.45 23.94 19.61 52.82 0l2.01 2.32c-30.58 22.7-47.88 64.86-44.48 104.4 1.39 16.22 6.33 32.59 16.99 46.02l-1.85 2.01C7.88 139-.15 114.6 0 92.51zM157.22 48.03c0-16.22-3.4-32.59-12.97-46.02L146.26 0c16.22 15.75 22.09 40.16 20.08 62.24-3.24 37.07-30.27 72.9-60.85 92.51l-1.85-2.32c32.59-22.7 53.59-64.87 53.59-104.4z"/><path class="cls-1" d="M40.14 17.56h48.97c19.12 0 33.73 12.59 33.73 29.54 0 13.84-6.53 23.32-18.19 27.52 11.81 0 16.63 4.82 16.63 15.39v36.38h-18.65V94.68c0-8.24-2.33-10.42-10.42-10.42H58.95v42.13H40.14V17.56zM84.6 67.77c12.44 0 19.59-6.68 19.59-17.41S97.51 34.19 84.6 34.19H58.95v33.58H84.6z"/></g></svg>