<svg data-name="Groupe 425" xmlns="http://www.w3.org/2000/svg" width="347.008" height="114.621"><defs><clipPath id="a"><path data-name="Rectangle 283" fill="none" d="M0 0h347.008v114.621H0z"/></clipPath></defs><g data-name="Groupe 363" clip-path="url(#a)" fill="#050504"><path data-name="Tracé 380" d="M261.421 47.49a47.079 47.079 0 012.141-14.034 60.408 60.408 0 015.826-13.082A63.677 63.677 0 01278.03 9a66.593 66.593 0 0110.506-9l1.03 1.188a51.27 51.27 0 00-10.425 10.426 61.374 61.374 0 00-7.532 13.121 65.16 65.16 0 00-4.243 14.747 62.019 62.019 0 00-.634 15.3 53.962 53.962 0 002.577 12.328 37.141 37.141 0 006.145 11.3l-.952 1.03a32.872 32.872 0 01-5.867-6.818 44.434 44.434 0 01-4.082-7.969 43.816 43.816 0 01-2.378-8.524 50.531 50.531 0 01-.753-8.64"/><path data-name="Tracé 381" d="M346.819 31.951a49.5 49.5 0 01-3.366 14.034 67.054 67.054 0 01-6.975 13.081 72.378 72.378 0 01-9.637 11.377 75.637 75.637 0 01-11.292 9l-.926-1.188a58.368 58.368 0 0011.338-10.426 69.016 69.016 0 008.681-13.129 70.447 70.447 0 005.536-14.742 63.559 63.559 0 001.973-15.3 51.772 51.772 0 00-1.5-12.329 33.55 33.55 0 00-5.155-11.3L336.535 0a28.965 28.965 0 015.268 6.818 40.28 40.28 0 013.385 7.969 41.36 41.36 0 011.634 8.522 50.113 50.113 0 010 8.642"/><path data-name="Tracé 382" d="M26.572 8.221c13.327 0 22.343 7.98 22.981 18.832h-9.575C39.02 20.59 33.994 16.76 26.971 16.76h-.8c-10.134 0-16.6 8.138-16.6 20.188 0 11.97 6.464 20.189 16.6 20.189h.8c7.023 0 12.049-3.83 13.007-10.294h9.575c-.638 11.251-9.653 18.833-22.981 18.833C9.974 65.676 0 53.783 0 36.948c0-17 9.974-28.727 26.572-28.727"/><path data-name="Tracé 383" d="M61.608 9.02h9.5v34.871c0 8.858 3.911 13.246 11.652 13.246h.8c7.74 0 11.649-4.389 11.649-13.246V9.02h9.576v36.148c0 13.007-7.262 20.508-21.625 20.508-14.444 0-21.546-7.5-21.546-20.508z"/><path data-name="Tracé 384" d="M120.264 9.02H145.4c9.816 0 17.316 6.463 17.316 15.161 0 7.1-3.351 11.97-9.335 14.125 6.064 0 8.538 2.473 8.538 7.9v18.671h-9.576V48.598c0-4.23-1.2-5.346-5.345-5.346h-17.077v21.625h-9.657zm22.822 25.778c6.384 0 10.054-3.432 10.054-8.937s-3.431-8.3-10.054-8.3h-13.165v17.237z"/><path data-name="Tracé 385" d="M210.601 51.233h-24.817l-5.267 13.646h-9.974l22.1-55.859h11.57l21.7 55.859h-10.046zm-3.351-8.618l-9.1-23.62-9.1 23.62z"/><path data-name="Tracé 386" d="M240.288 17.558h-19.55V9.019h48.757v8.539h-19.629v47.32h-9.576z"/><path data-name="Tracé 387" d="M282.026 9.02h25.136c9.816 0 17.316 6.463 17.316 15.161 0 7.1-3.351 11.97-9.335 14.125 6.064 0 8.538 2.473 8.538 7.9v18.671h-9.576V48.598c0-4.23-1.2-5.346-5.345-5.346h-17.074v21.625h-9.66zm22.822 25.778c6.384 0 10.054-3.432 10.054-8.937s-3.431-8.3-10.054-8.3h-13.162v17.237z"/><path data-name="Tracé 388" d="M133.747 114.258v-.472a13.209 13.209 0 001.816-.218 3.51 3.51 0 001.054-.363 1.342 1.342 0 00.508-.489 2.732 2.732 0 00.217-.528l5.775-21.464a1.72 1.72 0 00.054-.543.689.689 0 00-.272-.473 2.241 2.241 0 00-.853-.381 7.767 7.767 0 00-1.689-.2v-.469h10.023q4.032 0 5.956 1.488a5.133 5.133 0 011.925 4.322 6.769 6.769 0 01-1.107 3.886 9.047 9.047 0 01-2.851 2.687 13.094 13.094 0 01-3.886 1.544 19 19 0 01-4.25.491 15.149 15.149 0 01-3.268-.328l-2.542 9.443a1.956 1.956 0 00-.072.436.941.941 0 00.526.745 5.184 5.184 0 002.271.418v.472zm9.443-12.566a14.24 14.24 0 002.8.291 12.845 12.845 0 003.468-.472 9.827 9.827 0 003.015-1.4 7.165 7.165 0 002.125-2.3 6.351 6.351 0 00.8-3.233 4.976 4.976 0 00-.563-2.524 4.246 4.246 0 00-1.453-1.507 5.785 5.785 0 00-2-.745 12.682 12.682 0 00-2.233-.2q-.762 0-1.453.055t-1.307.127z"/><path data-name="Tracé 389" d="M156.625 110.264a11.522 11.522 0 01.925-4.212 16.481 16.481 0 012.615-4.378 14.827 14.827 0 014.086-3.431 10.5 10.5 0 015.338-1.381 12.623 12.623 0 011.6.109 9.18 9.18 0 011.707.4l-3.596 13.368a2.362 2.362 0 00-.074.581 1.211 1.211 0 00.164.635.6.6 0 00.563.273 2.726 2.726 0 001.6-.8 12.715 12.715 0 001.816-1.925l.363.253a21.59 21.59 0 01-3.015 3.578 4.1 4.1 0 01-2.652 1.288 1.413 1.413 0 01-1.343-.634 2.918 2.918 0 01-.363-1.471 4.984 4.984 0 01.181-1.346l1.308-4.794h-.074q-.725 1.561-1.6 3.034a18.607 18.607 0 01-1.871 2.632 9.884 9.884 0 01-2.087 1.871 4.09 4.09 0 01-2.252.707 2.878 2.878 0 01-2.433-1.216 5.106 5.106 0 01-.908-3.141m4.648 2.288a3.166 3.166 0 001.98-.763 9.762 9.762 0 001.834-1.98 21.143 21.143 0 001.615-2.669q.745-1.453 1.326-2.85t.963-2.543q.382-1.144.527-1.725l.4-1.634a5.774 5.774 0 00-1.09-.236 8.2 8.2 0 00-.835-.055 6.474 6.474 0 00-3.613 1.054 9.8 9.8 0 00-2.738 2.688 13.349 13.349 0 00-1.743 3.594 12.654 12.654 0 00-.618 3.814 5.154 5.154 0 00.472 2.452 1.613 1.613 0 001.526.854"/><path data-name="Tracé 390" d="M179.868 101.474a5.465 5.465 0 00.255-1.488.994.994 0 00-.4-.909 2.194 2.194 0 00-1.162-.255h-.367a2.422 2.422 0 00-.4.037v-.473q1.707-.363 2.924-.727t2.778-.908l.255.11-2.938 10.823h.072q1.016-2.068 2.124-4.012a29.85 29.85 0 012.285-3.468 11.914 11.914 0 012.452-2.433 4.4 4.4 0 012.579-.908 1.313 1.313 0 011.089.453 1.519 1.519 0 01.363.963 2.427 2.427 0 01-.6 1.489 1.838 1.838 0 01-1.507.762 1.009 1.009 0 01-.672-.2 2.519 2.519 0 01-.4-.418q-.165-.217-.327-.417a.556.556 0 00-.454-.2q-.762 0-1.979 1.452a26.182 26.182 0 00-2.507 3.687 51.516 51.516 0 00-2.451 4.849 32.575 32.575 0 00-1.78 4.975h-2.65z"/><path data-name="Tracé 391" d="M193.486 111.171l2.578-9.7a5.466 5.466 0 00.255-1.488.994.994 0 00-.4-.909 2.192 2.192 0 00-1.162-.253h-.363a2.412 2.412 0 00-.4.036v-.472q1.707-.363 2.924-.727t2.779-.909l.253.11-3.632 13.622a2.737 2.737 0 00-.145.871 1.113 1.113 0 00.164.618.616.616 0 00.563.253 2.726 2.726 0 001.6-.8 12.723 12.723 0 001.815-1.926l.363.255a21.523 21.523 0 01-3.015 3.578 4.1 4.1 0 01-2.65 1.288 1.415 1.415 0 01-1.344-.635 2.912 2.912 0 01-.363-1.471 4.981 4.981 0 01.182-1.343m5.121-20.883a1.783 1.783 0 01.472-1.29 1.8 1.8 0 012.469 0 1.788 1.788 0 01.472 1.29 1.846 1.846 0 01-.472 1.307 1.751 1.751 0 01-2.469 0 1.841 1.841 0 01-.472-1.307"/><path data-name="Tracé 392" d="M202.821 112.261a1.88 1.88 0 01.508-1.217 1.562 1.562 0 011.235-.6.85.85 0 01.871.527 10.7 10.7 0 01.4 1.163 4.978 4.978 0 00.489 1.161 1.25 1.25 0 001.181.527 1.91 1.91 0 001.707-.89 3.487 3.487 0 00.581-1.943 5.175 5.175 0 00-.672-2.452q-.673-1.253-1.488-2.487t-1.507-2.411a4.451 4.451 0 01-.69-2.233 3.269 3.269 0 01.473-1.653 5.005 5.005 0 011.29-1.453 7.115 7.115 0 011.888-1.035 6.569 6.569 0 012.306-.4 3.9 3.9 0 012.524.618 1.682 1.682 0 01.708 1.2 1.719 1.719 0 01-.453 1.145 1.376 1.376 0 01-1.071.526.859.859 0 01-.818-.418 7.2 7.2 0 01-.436-.926 3.42 3.42 0 00-.544-.926 1.463 1.463 0 00-1.181-.417 2.746 2.746 0 00-.727.11 2.052 2.052 0 00-.727.362 2 2 0 00-.544.69 2.528 2.528 0 00-.217 1.126 5.082 5.082 0 00.727 2.543q.725 1.27 1.579 2.523t1.575 2.518a5.083 5.083 0 01.727 2.543 3.44 3.44 0 01-.563 1.943 4.985 4.985 0 01-1.452 1.434 6.88 6.88 0 01-1.961.871 8.01 8.01 0 01-2.089.291 5.051 5.051 0 01-1.634-.237 3.471 3.471 0 01-1.126-.6 2.665 2.665 0 01-.653-.763 1.59 1.59 0 01-.218-.763"/></g></svg>